<svg width="180" height="60" viewBox="0 0 180 60" fill="none" xmlns="http://www.w3.org/2000/svg">
<g filter="url(#filter0_d_2328_20385)">
    <path fill-rule="evenodd" clip-rule="evenodd"
          d="M163.978 11.2838C164.219 11.2838 164.419 11.404 164.579 11.5242C164.78 11.6845 164.9 11.8848 164.94 12.0451C165.02 12.2855 165.02 12.5259 164.94 12.7262L162.456 20.8598C162.376 21.1002 162.175 21.3406 162.015 21.4608C161.815 21.621 161.574 21.7012 161.334 21.7012H150.676C150.436 21.7012 150.195 21.621 149.995 21.4608C149.795 21.3406 149.674 21.1002 149.594 20.8598L147.03 12.7262C146.99 12.5259 146.99 12.2855 147.03 12.0451C147.11 11.8848 147.23 11.6845 147.431 11.5242C147.591 11.404 147.791 11.2838 148.032 11.2838C148.232 11.2437 148.472 11.2838 148.673 11.3639L151.958 12.9265L155.124 9.3606C155.244 9.2404 155.364 9.16027 155.524 9.08013C155.644 9.04007 155.845 9 156.005 9C156.165 9 156.326 9.04007 156.486 9.08013C156.646 9.16027 156.766 9.2404 156.846 9.3606L160.052 12.9265L163.337 11.3639C163.538 11.2838 163.778 11.2437 163.978 11.2838ZM151.558 19.4174H160.452L161.975 14.5693L160.252 15.4107C160.012 15.5309 159.731 15.5309 159.531 15.4908C159.25 15.4508 159.05 15.2905 158.89 15.0901L156.005 11.8848L153.12 15.0901C152.96 15.2905 152.72 15.4508 152.479 15.4908C152.239 15.5309 151.998 15.5309 151.758 15.4107L150.035 14.5693L151.558 19.4174Z"
          fill="#FFD00D"/>
    <path fill-rule="evenodd" clip-rule="evenodd"
          d="M109.494 34.7141V21.2389H103.868V34.4777C103.868 35.6125 103.726 36.5108 103.537 37.2673C103.301 38.1657 102.922 38.8749 102.45 39.395C102.024 39.8678 101.409 40.2934 100.747 40.5298C100.038 40.8135 99.329 40.9553 98.3833 40.9553C97.4377 40.9553 96.6339 40.8135 95.972 40.5298C95.2627 40.2934 94.6954 39.8205 94.2698 39.3477C93.8443 38.8276 93.466 38.1184 93.1824 37.2201C93.0405 36.4163 92.8987 35.5652 92.8987 34.4777V21.2389H87.2249V34.7141C87.2249 36.4636 87.4613 38.0711 87.9341 39.4423C88.4069 40.7662 89.1161 41.8536 90.1091 42.8466C91.102 43.7922 92.284 44.5014 93.6079 44.9742C95.0263 45.447 96.6339 45.6834 98.336 45.6834C101.882 45.6834 104.672 44.6905 106.563 42.7993C108.454 40.9553 109.494 38.213 109.494 34.7141ZM111.811 21.2389V34.7141C111.811 38.8749 110.535 42.1846 108.218 44.5014C105.854 46.7709 102.497 48.0002 98.336 48.0002C96.3502 48.0002 94.5062 47.7638 92.8514 47.1965C91.1493 46.6291 89.7781 45.7307 88.5015 44.5487H88.4542C87.2722 43.2721 86.3265 41.8536 85.7592 40.2461C85.1445 38.5439 84.9081 36.7 84.9081 34.7141V21.2389C84.9081 20.5297 85.1445 19.9623 85.57 19.5368C85.9956 19.1585 86.5629 18.8748 87.2249 18.8748H92.8987C93.5133 18.8748 94.0334 19.1112 94.459 19.4422L94.5535 19.5368C94.9791 19.9623 95.2627 20.5297 95.2627 21.2389V34.4777C95.2627 35.3288 95.31 36.038 95.4519 36.6054C95.641 37.1255 95.8301 37.551 96.0665 37.7874C96.2557 38.0711 96.5393 38.2602 96.823 38.3548C97.2486 38.4967 97.7687 38.5912 98.3833 38.5912C98.998 38.5912 99.4708 38.4967 99.8963 38.3548C100.227 38.2602 100.511 38.0711 100.747 37.8347C100.937 37.5983 101.126 37.1728 101.315 36.6527C101.409 36.0853 101.504 35.3761 101.504 34.4777V21.2389C101.504 20.5297 101.788 19.9623 102.166 19.5368C102.639 19.1585 103.206 18.8748 103.868 18.8748H109.494C110.062 18.8748 110.629 19.1112 111.007 19.4422L111.102 19.5368C111.575 19.9623 111.811 20.5297 111.811 21.2389ZM35.6408 29.9387C35.6408 29.0404 35.5462 28.1893 35.3571 27.3855C35.1207 26.6763 34.837 25.9671 34.3642 25.3051C33.9386 24.6432 33.4185 24.0758 32.8039 23.5557C32.1419 23.0829 31.4327 22.6101 30.6762 22.2791L30.5816 22.2318C29.7778 21.9009 28.9268 21.6644 28.0284 21.4753C27.1301 21.2862 26.0899 21.2389 25.0024 21.2389H14.3168V45.2579H20.0379V39.7733C20.0379 39.1586 20.558 38.6385 21.1726 38.6385H25.0024C26.0899 38.6385 27.1301 38.5439 28.0284 38.3548C28.9741 38.213 29.8724 37.9766 30.6762 37.6456C32.2365 36.9364 33.5131 35.8489 34.3642 34.5723C35.2152 33.2957 35.6408 31.6881 35.6408 29.9387ZM37.5793 26.7708C37.863 27.811 38.0048 28.8039 38.0048 29.9387C38.0048 32.2082 37.4375 34.194 36.3027 35.8489C35.2625 37.551 33.6076 38.8749 31.5745 39.7733H31.5273C30.5816 40.1988 29.5414 40.4825 28.454 40.6716C27.3192 40.908 26.1845 41.0026 25.0024 41.0026H22.4019V45.2579C22.4019 45.9199 22.1182 46.5345 21.6927 46.9128V46.96C21.2672 47.3383 20.6525 47.622 20.0379 47.622H14.3168C13.7021 47.622 13.1348 47.3383 12.7092 46.96C12.2364 46.5345 12 45.9199 12 45.2579V21.2389C12 20.5297 12.2364 19.9623 12.7092 19.5368C13.1348 19.1585 13.7021 18.8748 14.3168 18.8748H25.0024C26.1845 18.8748 27.3665 18.9694 28.454 19.1585C29.5414 19.3476 30.5816 19.6786 31.48 20.1042L31.5745 20.1514C32.6147 20.5297 33.4658 21.1443 34.2696 21.759C35.0734 22.4209 35.7353 23.1775 36.3027 23.9812C36.9174 24.8796 37.2956 25.8252 37.5793 26.7708ZM28.6431 26.9127C29.1159 27.3382 29.3996 27.811 29.636 28.3311C29.8251 28.8039 29.9197 29.3713 29.9197 29.9387C29.9197 30.6479 29.7778 31.2153 29.5887 31.6881C29.3523 32.2082 29.0213 32.681 28.5958 33.012C28.123 33.3903 27.5556 33.6739 26.7991 33.8631C26.2317 34.0049 25.5225 34.0995 24.6714 34.0995H21.1726C20.558 34.0995 20.0379 33.5794 20.0379 32.9174V26.9127C20.0379 26.2507 20.558 25.7307 21.1726 25.7307H24.6714C25.5225 25.7307 26.2317 25.8725 26.7991 26.0143C27.5556 26.1562 28.123 26.4872 28.5958 26.8181L28.6431 26.9127ZM27.4611 29.1349C27.3665 28.9458 27.3192 28.8039 27.1301 28.7094L27.0828 28.6621C26.8937 28.5203 26.61 28.3311 26.2317 28.2366C25.8535 28.142 25.2861 28.0947 24.6714 28.0947H22.4019V31.7354H24.6714C25.2861 31.7354 25.8535 31.6881 26.2317 31.5936C26.61 31.499 26.8937 31.3572 27.1301 31.2153C27.2719 31.0735 27.3192 30.9316 27.4138 30.7898C27.5083 30.6006 27.5556 30.2697 27.5556 29.9387C27.5556 29.6077 27.5083 29.3713 27.4611 29.1349ZM41.5982 19.5368C42.0238 19.1585 42.5911 18.8748 43.2058 18.8748H48.9269C49.5888 18.8748 50.1562 19.1585 50.5817 19.5368C51.0072 19.9623 51.2909 20.5297 51.2909 21.2389V45.2579C51.2909 45.9199 51.0545 46.44 50.629 46.8182L50.5817 46.96C50.1562 47.3383 49.5888 47.622 48.9269 47.622H43.2058C42.5911 47.622 42.0238 47.3383 41.5982 46.96C41.1254 46.5345 40.889 45.9199 40.889 45.2579V21.2389C40.889 20.5297 41.1254 19.9623 41.5982 19.5368ZM43.2058 21.2389V45.2579H48.9269V21.2389H43.2058ZM71.6693 31.168L81.1256 21.2389C77.2958 21.2389 74.4116 21.1916 74.4116 21.1916C74.4116 21.1916 70.96 25.1633 65.9009 30.3642C65.4754 30.8371 64.7189 30.8371 64.2934 30.4115C64.0569 30.1278 63.9151 29.8914 63.9151 29.5605V21.2389H58.2413V45.2579H63.9151V39.6787C63.9151 39.3004 64.0569 39.0168 64.3406 38.7803L66.3265 36.7472C66.752 36.3217 67.5085 36.3217 67.934 36.7472C67.9813 36.7945 68.0286 36.8418 68.0759 36.8891L75.0735 45.2579H81.7402L71.5747 32.7283C71.2437 32.2555 71.2437 31.5936 71.6693 31.168ZM82.8277 22.7992L74.0333 32.0664L83.5842 43.8395C83.8206 44.1704 84.0097 44.5487 84.057 45.0215C84.1043 45.447 84.0097 45.9199 83.8206 46.2981C83.6315 46.6764 83.3478 47.0546 82.9696 47.291C82.5913 47.4801 82.213 47.622 81.6929 47.622H75.0735C74.7426 47.622 74.4116 47.5274 74.0806 47.3856C73.7969 47.291 73.5132 47.0546 73.2768 46.7709L67.083 39.3004L66.2792 40.1515V45.2579C66.2792 45.9199 66.0428 46.44 65.6645 46.8182L65.57 46.96C65.1444 47.3383 64.577 47.622 63.9151 47.622H58.2413C57.6267 47.622 57.012 47.3383 56.6337 46.96V46.9128C56.1609 46.5345 55.9245 45.9199 55.9245 45.2579V21.2389C55.9245 20.5297 56.1609 19.9623 56.6337 19.5368C57.012 19.1585 57.6267 18.8748 58.2413 18.8748H63.9151C64.577 18.8748 65.1444 19.1585 65.57 19.5368C65.9955 19.9623 66.2792 20.5297 66.2792 21.2389V26.6763L73.135 19.5841C73.3241 19.3476 73.6078 19.1585 73.8915 19.064C74.1752 18.9221 74.5062 18.8748 74.7898 18.8748H81.1256C81.5511 18.8748 82.0239 19.0167 82.4022 19.2531C82.7804 19.4895 83.0641 19.8677 83.3005 20.2933C83.4424 20.6715 83.4896 21.0971 83.4424 21.4753V21.6172C83.3478 22.0427 83.1587 22.5155 82.8277 22.7992ZM130.346 45.6834C131.433 45.6834 132.473 45.5889 133.419 45.3998H133.466C134.412 45.2579 135.31 44.9742 136.161 44.596C137.06 44.2177 137.816 43.7922 138.525 43.2248C139.282 42.7047 139.896 42.0901 140.558 41.3808C140.18 41.0971 136.918 38.0238 136.87 38.1184C136.019 39.064 135.074 39.7733 134.081 40.2461C132.993 40.7189 131.906 40.9553 130.677 40.9553C129.92 40.9553 129.211 40.8607 128.549 40.7189C127.84 40.5298 127.225 40.3406 126.658 39.9624H126.61C126.043 39.6787 125.476 39.2532 125.003 38.7803C124.577 38.3548 124.152 37.7874 123.821 37.2201L123.773 37.1728C123.443 36.6054 123.253 35.9907 123.064 35.3761C122.875 34.7141 122.828 34.0049 122.828 33.2484C122.828 32.4919 122.875 31.7827 123.064 31.1207C123.253 30.4588 123.443 29.8441 123.821 29.2768C124.53 28.0474 125.476 27.1491 126.705 26.5344C127.887 25.8725 129.258 25.5415 130.677 25.5415C131.906 25.5415 132.993 25.7779 134.081 26.2507C135.074 26.7236 136.019 27.3855 136.87 28.3784C136.918 28.3311 140.18 25.3524 140.558 25.0687L140.464 24.9741C139.896 24.3595 139.235 23.7448 138.525 23.272L138.478 23.1775C137.769 22.6574 137.012 22.2318 136.161 21.9009C135.31 21.5226 134.365 21.2389 133.466 21.0971C132.473 20.9079 131.48 20.7661 130.393 20.7661C129.116 20.7661 127.934 20.9552 126.8 21.2389C125.617 21.4753 124.577 21.9009 123.537 22.4209L123.49 22.4682C121.457 23.5084 119.896 25.0214 118.762 26.8654C117.674 28.7567 117.06 30.8843 117.06 33.2484C117.06 34.4304 117.201 35.6125 117.485 36.6527C117.816 37.6929 118.194 38.7331 118.762 39.6787L118.809 39.726C119.991 41.6645 121.646 43.1302 123.537 44.1232C125.57 45.2106 127.934 45.6834 130.346 45.6834ZM133.844 47.7166C132.757 47.953 131.575 48.0002 130.346 48.0002C127.556 48.0002 124.861 47.3856 122.497 46.1563C120.18 45.0215 118.242 43.2248 116.776 40.908C116.067 39.7733 115.594 38.5439 115.216 37.2673C114.885 35.9907 114.695 34.6196 114.695 33.2484C114.695 30.4588 115.452 27.9056 116.776 25.6834C118.052 23.4611 119.944 21.6644 122.402 20.3878L122.497 20.3406C123.679 19.7259 124.908 19.2058 126.232 18.9221C127.556 18.5911 128.927 18.4966 130.393 18.4966C131.622 18.4966 132.804 18.5439 133.892 18.7803C135.026 19.0167 136.067 19.3004 137.107 19.7732C138.053 20.1514 138.998 20.6715 139.849 21.2862L139.896 21.3335C140.748 21.9481 141.551 22.6574 142.213 23.4611L142.308 23.5557C142.686 24.0285 142.875 24.6432 142.828 25.2106C142.781 25.8252 142.592 26.3453 142.071 26.7708L138.431 30.1278C138.242 30.2697 137.958 30.4115 137.722 30.5534H137.674C137.343 30.6952 137.06 30.7425 136.729 30.6952C136.398 30.6952 136.114 30.6006 135.83 30.4588C135.594 30.317 135.31 30.1278 135.074 29.9387C134.506 29.2295 133.844 28.7094 133.088 28.3784C132.379 28.0474 131.622 27.9056 130.677 27.9056C129.636 27.9056 128.643 28.0947 127.745 28.5675C126.989 28.9931 126.279 29.6077 125.854 30.4115C125.617 30.8371 125.428 31.2626 125.334 31.6881C125.239 32.1609 125.145 32.681 125.145 33.2484C125.145 33.8158 125.239 34.2886 125.334 34.8087C125.428 35.2342 125.617 35.6598 125.807 36.0853H125.854C126.09 36.4636 126.327 36.8418 126.658 37.1255C126.941 37.4565 127.367 37.6929 127.745 37.9293C128.171 38.1657 128.596 38.3548 129.069 38.4021C129.542 38.5439 130.109 38.5912 130.677 38.5912C131.575 38.5912 132.331 38.4494 133.088 38.1184C133.797 37.7402 134.459 37.2673 135.074 36.5581C135.31 36.3217 135.594 36.1326 135.83 35.9907C136.114 35.8489 136.398 35.7543 136.681 35.7543H136.729C137.06 35.7071 137.343 35.7543 137.674 35.8962C137.911 35.9907 138.194 36.1799 138.431 36.3217L142.071 39.6787C142.592 40.1042 142.781 40.6716 142.828 41.239C142.875 41.8064 142.686 42.421 142.308 42.8938C141.599 43.7449 140.795 44.5014 139.896 45.1633C139.093 45.778 138.1 46.2981 137.107 46.7236C136.067 47.1965 135.026 47.4801 133.892 47.7166H133.844ZM155.83 45.5416C157.722 45.5416 159.613 45.1633 161.173 44.3596C162.639 43.6031 163.915 42.4683 164.861 40.9553C165.287 40.2461 165.618 39.4423 165.854 38.6385C166.043 37.8347 166.185 36.9836 166.185 36.038C166.185 35.0924 166.043 34.2413 165.854 33.4375C165.618 32.5865 165.287 31.83 164.861 31.1207C164.436 30.3642 163.868 29.7496 163.254 29.1822C162.639 28.6621 161.93 28.142 161.126 27.7638V27.7165C160.369 27.3382 159.566 27.0073 158.667 26.8181C157.769 26.629 156.823 26.5344 155.83 26.5344C154.837 26.5344 153.845 26.629 152.946 26.8181C152.095 27.0073 151.244 27.3382 150.44 27.7165L150.393 27.7638C149.636 28.142 148.927 28.6621 148.313 29.1822C147.745 29.7496 147.225 30.3642 146.752 31.1207L146.705 31.168C146.279 31.8772 145.996 32.6338 145.759 33.4375C145.523 34.2413 145.428 35.0924 145.428 36.038C145.428 36.9836 145.523 37.8347 145.759 38.6385C145.996 39.4896 146.327 40.2461 146.752 40.9553C147.698 42.5156 148.975 43.6031 150.44 44.3596C152.048 45.1633 153.892 45.5416 155.83 45.5416ZM162.261 46.44C160.322 47.3856 158.1 47.9057 155.83 47.9057C153.561 47.9057 151.339 47.3856 149.4 46.44C147.509 45.447 145.949 44.0759 144.766 42.1846C144.199 41.239 143.774 40.2934 143.49 39.2532C143.253 38.213 143.112 37.1255 143.112 36.038C143.112 34.9505 143.253 33.8158 143.49 32.8229C143.774 31.7827 144.152 30.8371 144.719 29.986L144.766 29.8914C145.334 28.9931 145.996 28.142 146.752 27.4328C147.509 26.7708 148.36 26.1562 149.306 25.6834H149.4C150.346 25.1633 151.386 24.785 152.426 24.5486C153.561 24.2649 154.648 24.1704 155.83 24.1704C157.012 24.1704 158.1 24.2649 159.187 24.5486C160.275 24.785 161.268 25.1633 162.261 25.6834C163.206 26.1562 164.057 26.7708 164.814 27.4328C165.618 28.142 166.28 28.9931 166.847 29.8914C167.367 30.8371 167.84 31.7827 168.076 32.8229C168.36 33.8158 168.549 34.9505 168.549 36.038C168.549 37.1255 168.36 38.2603 168.076 39.2532C167.84 40.2934 167.367 41.239 166.847 42.1846C165.665 44.0759 164.057 45.447 162.261 46.44ZM155.83 41.1444C154.317 41.1444 153.135 40.6243 152.284 39.726C151.433 38.7803 150.96 37.5037 150.96 36.038C150.96 34.5723 151.433 33.2957 152.284 32.3501C153.135 31.4517 154.317 30.8843 155.83 30.8843C157.296 30.8843 158.478 31.4517 159.282 32.3501C160.18 33.2957 160.606 34.5723 160.606 36.038C160.606 37.5037 160.18 38.7803 159.329 39.726C158.478 40.6243 157.296 41.1444 155.83 41.1444ZM153.986 38.1184C154.365 38.5439 154.979 38.8276 155.83 38.8276C156.587 38.8276 157.202 38.5439 157.627 38.1184C158.053 37.6456 158.289 36.9364 158.289 36.038C158.289 35.187 158.053 34.4304 157.627 33.9576C157.202 33.5321 156.587 33.2484 155.83 33.2484C155.027 33.2484 154.412 33.5321 154.034 33.9576C153.561 34.4304 153.324 35.187 153.324 36.038C153.324 36.9364 153.561 37.6929 153.986 38.1184Z"
          fill="#FFD00D"/>
</g>
<defs>
    <filter id="filter0_d_2328_20385" x="5" y="2" width="170.549" height="53.0002" filterUnits="userSpaceOnUse"
            color-interpolation-filters="sRGB">
        <feFlood flood-opacity="0" result="BackgroundImageFix"/>
        <feColorMatrix in="SourceAlpha" type="matrix" values="0 0 0 0 0 0 0 0 0 0 0 0 0 0 0 0 0 0 127 0"
                       result="hardAlpha"/>
        <feOffset/>
        <feGaussianBlur stdDeviation="3.5"/>
        <feColorMatrix type="matrix" values="0 0 0 0 1 0 0 0 0 0.792157 0 0 0 0 0.156863 0 0 0 0.75 0"/>
        <feBlend mode="normal" in2="BackgroundImageFix" result="effect1_dropShadow_2328_20385"/>
        <feBlend mode="normal" in="SourceGraphic" in2="effect1_dropShadow_2328_20385" result="shape"/>
    </filter>
</defs>
</svg>
